<?xml version="1.0" encoding="UTF-8" standalone="no"?>
<!-- Created with Inkscape (http://www.inkscape.org/) -->

<svg
   width="210mm"
   height="297mm"
   viewBox="0 0 210 297"
   version="1.1"
   id="svg1"
   inkscape:version="1.3 (0e150ed6c4, 2023-07-21)"
   sodipodi:docname="jnihook.svg"
   xml:space="preserve"
   xmlns:inkscape="http://www.inkscape.org/namespaces/inkscape"
   xmlns:sodipodi="http://sodipodi.sourceforge.net/DTD/sodipodi-0.dtd"
   xmlns="http://www.w3.org/2000/svg"
   xmlns:svg="http://www.w3.org/2000/svg"><sodipodi:namedview
     id="namedview1"
     pagecolor="#505050"
     bordercolor="#eeeeee"
     borderopacity="1"
     inkscape:showpageshadow="0"
     inkscape:pageopacity="0"
     inkscape:pagecheckerboard="0"
     inkscape:deskcolor="#505050"
     inkscape:document-units="mm"
     inkscape:zoom="2"
     inkscape:cx="371.5"
     inkscape:cy="632"
     inkscape:window-width="1916"
     inkscape:window-height="1056"
     inkscape:window-x="0"
     inkscape:window-y="20"
     inkscape:window-maximized="1"
     inkscape:current-layer="layer1" /><defs
     id="defs1" /><g
     inkscape:label="Layer 1"
     inkscape:groupmode="layer"
     id="layer1"><g
       id="g4"
       transform="translate(7.2601673,23.540077)"
       style="fill:#5396b6;fill-opacity:1"><text
         xml:space="preserve"
         style="font-style:normal;font-variant:normal;font-weight:normal;font-stretch:normal;font-size:50.8px;font-family:'UbuntuMono Nerd Font';-inkscape-font-specification:'UbuntuMono Nerd Font';fill:#5396b6;fill-opacity:1;stroke-width:4.7625"
         x="6.3931999"
         y="124.036"
         id="text1"><tspan
           sodipodi:role="line"
           id="tspan1"
           style="font-style:normal;font-variant:normal;font-weight:normal;font-stretch:normal;font-size:50.8px;font-family:'UbuntuMono Nerd Font';-inkscape-font-specification:'UbuntuMono Nerd Font';fill:#5396b6;fill-opacity:1;stroke-width:4.7625"
           x="6.3931999"
           y="124.036">j</tspan></text><g
         id="g3"
         transform="matrix(0.07062128,0,0,0.07062128,53.304043,93.256956)"
         style="fill:#5396b6;fill-opacity:1"><g
           id="g2"
           style="fill:#5396b6;fill-opacity:1"><path
             d="m 298.351,337.541 42.983,22.756 c 0,41.825 -34.027,75.852 -75.852,75.852 -41.825,0 -75.852,-34.027 -75.852,-75.852 V 99.246 C 201.259,88.823 208.593,73.699 208.593,56.889 208.593,25.52 183.072,0 151.704,0 120.335,0 94.815,25.52 94.815,56.889 c 0,16.809 7.334,31.932 18.963,42.357 v 261.05 c 0,83.783 67.92,151.704 151.704,151.704 83.784,0 151.704,-67.92 151.704,-151.704 V 226.291 Z M 151.704,75.852 c -10.456,0 -18.963,-8.507 -18.963,-18.963 0,-10.456 8.507,-18.963 18.963,-18.963 10.456,0 18.963,8.507 18.963,18.963 0,10.456 -8.507,18.963 -18.963,18.963 z"
             id="path1"
             style="fill:#5396b6;fill-opacity:1" /></g></g><text
         xml:space="preserve"
         style="font-style:normal;font-variant:normal;font-weight:normal;font-stretch:normal;font-size:50.8px;font-family:'UbuntuMono Nerd Font';-inkscape-font-specification:'UbuntuMono Nerd Font';fill:#5396b6;fill-opacity:1;stroke-width:4.7625"
         x="31.3932"
         y="123.3756"
         id="text2"><tspan
           sodipodi:role="line"
           id="tspan2"
           style="fill:#5396b6;fill-opacity:1;stroke-width:4.7625"
           x="31.3932"
           y="123.3756">n</tspan></text></g><g
       style="fill:#e68300;fill-opacity:1"
       id="g1"
       transform="matrix(-1.8764594,0,0,1.8764594,119.69826,121.74563)"><path
         id="path1-5"
         style="fill:#e68300;fill-opacity:1"
         inkscape:transform-center-x="-17.943222"
         inkscape:transform-center-y="12.044485"
         d="m 23.702073,11.125015 c 0.518242,-0.0084 1.04337,0.113716 1.524027,0.375912 l 14.076177,7.355204 c 0.489489,0.255762 0.679044,0.859662 0.423279,1.349151 l -1.250561,2.393168 c -1.973371,3.90956 -6.670471,5.578566 -10.668185,3.790513 -3.391762,-1.618694 -5.199535,-5.380096 -4.344604,-9.039784 l -1.119474,-0.584936 c -0.0784,-0.04108 -0.159586,-0.120762 -0.232506,-0.167401 0.812877,-0.165697 1.538864,-0.04237 2.242041,-1.519077 l 0.729241,-1.395693 -0.886215,-0.463212 c -0.434146,-0.226418 -0.832765,-0.129634 -1.105429,0.113187 -0.995978,0.636441 -1.875378,0.457408 -2.33454,0.349781 0.07573,-0.508973 0.294573,-1.035612 0.647208,-1.470957 0.590798,-0.695466 1.4358,-1.07192 2.299534,-1.085876 z"
         sodipodi:nodetypes="ccccccccccccccccc" /></g></g></svg>
